<svg width="103" height="96" viewBox="0 0 103 96" fill="none" xmlns="http://www.w3.org/2000/svg">
<path d="M43.6196 87.2393C67.7101 87.2393 87.2393 67.7101 87.2393 43.6196C87.2393 19.5292 67.7101 0 43.6196 0C19.5292 0 0 19.5292 0 43.6196C0 67.7101 19.5292 87.2393 43.6196 87.2393Z" fill="#F0F5FF"/>
<path d="M56.6196 93.2393C80.7101 93.2393 100.239 73.7101 100.239 49.6196C100.239 25.5292 80.7101 6 56.6196 6C32.5292 6 13 25.5292 13 49.6196C13 73.7101 32.5292 93.2393 56.6196 93.2393Z" stroke="#3A7EDF" stroke-width="4" stroke-linecap="round" stroke-linejoin="round"/>
<path d="M45 70.5H69C72.032 70.5 74.5 68.0343 74.5 65V35C74.5 31.9657 72.032 29.5 69 29.5H45C41.968 29.5 39.5 31.9657 39.5 35V65C39.5 68.0343 41.968 70.5 45 70.5ZM42.5 35C42.5 33.6221 43.6221 32.5 45 32.5H69C70.3779 32.5 71.5 33.6221 71.5 35V65C71.5 66.3779 70.3779 67.5 69 67.5H45C43.6221 67.5 42.5 66.3779 42.5 65V35Z" fill="#3A7EDF" stroke="#3A7EDF"/>
<path d="M49 56.5H65C65.8281 56.5 66.5 55.8281 66.5 55C66.5 54.1719 65.8281 53.5 65 53.5H49C48.1719 53.5 47.5 54.1719 47.5 55C47.5 55.8281 48.1719 56.5 49 56.5Z" fill="#3A7EDF" stroke="#3A7EDF"/>
<path d="M49 64.5H65C65.8281 64.5 66.5 63.8281 66.5 63C66.5 62.1719 65.8281 61.5 65 61.5H49C48.1719 61.5 47.5 62.1719 47.5 63C47.5 63.8281 48.1719 64.5 49 64.5Z" fill="#3A7EDF" stroke="#3A7EDF"/>
<path d="M49 48.5H65C65.8281 48.5 66.5 47.8281 66.5 47C66.5 46.1719 65.8281 45.5 65 45.5H49C48.1719 45.5 47.5 46.1719 47.5 47C47.5 47.8281 48.1719 48.5 49 48.5Z" fill="#3A7EDF" stroke="#3A7EDF"/>
<path d="M49 40.5H65C65.8281 40.5 66.5 39.8281 66.5 39C66.5 38.1719 65.8281 37.5 65 37.5H49C48.1719 37.5 47.5 38.1719 47.5 39C47.5 39.8281 48.1719 40.5 49 40.5Z" fill="#3A7EDF" stroke="#3A7EDF"/>
</svg>
