<svg width="158" height="142" viewBox="0 0 158 142" fill="none" xmlns="http://www.w3.org/2000/svg">
<g clip-path="url(#clip0_7235_2)">
<path d="M46.7695 50.398C26.9533 45.0883 6.58467 56.8481 1.27494 76.6643C-4.03479 96.4805 7.72503 116.849 27.5412 122.159L93.5762 139.853C113.392 145.162 133.761 133.403 139.071 113.586C144.38 93.7703 132.621 73.4017 112.804 68.092L46.7695 50.398Z" fill="#2AC092"/>
<path d="M156.725 47.541C162.035 27.7248 150.275 7.35616 130.459 2.04643C110.643 -3.26331 90.2738 8.49651 84.964 28.3127L67.27 94.3477C61.9603 114.164 73.7201 134.532 93.5363 139.842C113.353 145.152 133.721 133.392 139.031 113.576L156.725 47.541Z" fill="#2AC092"/>
<path d="M53.6827 90.7695C52.401 90.4159 51.6298 89.0763 52.2052 87.8776C53.12 85.9716 54.4749 84.2965 56.1715 82.998C58.5093 81.2088 61.3678 80.2327 64.3116 80.2184C67.2554 80.2041 70.1232 81.1523 72.4783 82.9186C74.1875 84.2005 75.5587 85.8624 76.492 87.7593C77.079 88.9524 76.3209 90.2994 75.0427 90.6655C73.7645 91.0315 72.4571 90.2639 71.7552 89.1346C71.1898 88.2248 70.4573 87.4215 69.5893 86.7705C68.0741 85.6341 66.229 85.0241 64.335 85.0333C62.441 85.0425 60.602 85.6705 59.0979 86.8216C58.2363 87.481 57.5117 88.2914 56.9551 89.2066C56.2643 90.3427 54.9645 91.1231 53.6827 90.7695Z" fill="white"/>
<path d="M98.7853 90.7695C97.5035 90.4159 96.7324 89.0763 97.3077 87.8776C98.2225 85.9716 99.5774 84.2965 101.274 82.998C103.612 81.2088 106.47 80.2327 109.414 80.2184C112.358 80.2041 115.226 81.1523 117.581 82.9186C119.29 84.2005 120.661 85.8624 121.595 87.7593C122.182 88.9524 121.423 90.2994 120.145 90.6655C118.867 91.0315 117.56 90.2639 116.858 89.1346C116.292 88.2248 115.56 87.4215 114.692 86.7705C113.177 85.6341 111.332 85.0241 109.438 85.0333C107.544 85.0425 105.705 85.6705 104.2 86.8216C103.339 87.481 102.614 88.2914 102.058 89.2066C101.367 90.3427 100.067 91.1231 98.7853 90.7695Z" fill="white"/>
</g>
<defs>
<clipPath id="clip0_7235_2">
<rect width="158" height="142" fill="white"/>
</clipPath>
</defs>
</svg>
