<?xml version="1.0" encoding="iso-8859-1"?>
<!-- Uploaded to: SVG Repo, www.svgrepo.com, Generator: SVG Repo Mixer Tools -->
<svg fill="#000000" height="800px" width="800px" version="1.1" id="Layer_1" xmlns="http://www.w3.org/2000/svg" xmlns:xlink="http://www.w3.org/1999/xlink" 
	 viewBox="0 0 490.667 490.667" xml:space="preserve">
<g>
	<g>
		<g>
			<path d="M309.333,85.333h-128c-9.664,0-18.752,4.565-24.981,12.544c-3.605,4.651-2.795,11.349,1.856,14.976
				c4.629,3.584,11.328,2.773,14.976-1.856c1.259-1.621,3.989-4.331,8.149-4.331h128c5.888,0,10.667,4.779,10.667,10.667v153.003
				c0,5.888,4.779,10.667,10.667,10.667c5.888,0,10.667-4.779,10.667-10.667V117.333C341.333,99.691,326.976,85.333,309.333,85.333z
				"/>
			<path d="M192,117.333c-5.888,0-10.667,4.779-10.667,10.667c0,5.888,4.779,10.667,10.667,10.667s10.667-4.779,10.667-10.667
				C202.667,122.112,197.888,117.333,192,117.333z"/>
			<path d="M245.333,0C110.059,0,0,110.059,0,245.333s110.059,245.333,245.333,245.333s245.333-110.059,245.333-245.333
				S380.608,0,245.333,0z M245.333,469.333c-123.52,0-224-100.48-224-224c0-57.92,22.293-110.613,58.496-150.421l69.504,69.504
				v208.917c0,17.643,14.357,32,32,32h128c17.643,0,32-14.357,32-32v-16.917l54.421,54.421
				C355.947,447.04,303.253,469.333,245.333,469.333z M170.667,320V185.749L304.917,320H170.667z M256,362.667
				c0,5.888-4.779,10.667-10.667,10.667s-10.667-4.779-10.667-10.667c0-5.888,4.779-10.667,10.667-10.667S256,356.779,256,362.667z
				 M410.837,395.755L94.933,79.851c39.808-36.203,92.501-58.496,150.421-58.496c123.52,0,224,100.48,224,224
				C469.333,303.253,447.04,355.947,410.837,395.755z"/>
		</g>
	</g>
</g>
</svg>