<svg width="800" height="800" viewBox="0 0 800 800" fill="none" xmlns="http://www.w3.org/2000/svg">
<path d="M266.667 733.333C172.386 733.333 125.245 733.333 95.956 704.044C66.6666 674.755 66.6666 627.614 66.6666 533.333L66.6666 500C66.6666 405.72 66.6666 358.58 95.9559 329.29C125.245 300 172.386 300 266.667 300L533.333 300C627.613 300 674.753 300 704.043 329.29C733.333 358.58 733.333 405.72 733.333 500L733.333 533.333C733.333 627.614 733.333 674.755 704.043 704.044C674.753 733.333 627.613 733.333 533.333 733.333L266.667 733.333Z" stroke="#1C274C" stroke-width="50"/>
<path d="M333.56 216.667C334.457 154.677 339.057 119.533 362.633 95.9566C391.923 66.6666 439.063 66.6666 533.343 66.6666C627.623 66.6666 674.767 66.6666 704.053 95.9566C727.633 119.533 732.23 154.677 733.127 216.667" stroke="#1C274C" stroke-width="50" stroke-linecap="round"/>
<path d="M166.667 433.333L166.667 600" stroke="#1C274C" stroke-width="50" stroke-linecap="round"/>
<path d="M600 166.667L466.667 166.667" stroke="#1C274C" stroke-width="50" stroke-linecap="round"/>
<path d="M583.333 466.667C610.947 466.667 633.333 489.052 633.333 516.667C633.333 544.281 610.947 566.667 583.333 566.667C555.72 566.667 533.333 544.281 533.333 516.667C533.333 489.052 555.72 466.667 583.333 466.667Z" stroke="#1C274C" stroke-width="50"/>
<path d="M232.866 116.667L266.667 66.6666C166.178 66.6666 82.7585 138.743 66.6669 233.333" stroke="#1C274C" stroke-width="50" stroke-linecap="round" stroke-linejoin="round"/>
</svg>
